<?xml version="1.0" standalone="no"?>
<!DOCTYPE svg PUBLIC "-//W3C//DTD SVG 20010904//EN"
 "http://www.w3.org/TR/2001/REC-SVG-20010904/DTD/svg10.dtd">
<svg version="1.0" xmlns="http://www.w3.org/2000/svg"
 width="140.000000pt" height="140.000000pt" viewBox="0 0 140.000000 140.000000"
 preserveAspectRatio="xMidYMid meet">

<g transform="translate(0.000000,140.000000) scale(0.100000,-0.100000)"
fill="#000000" stroke="none">
<path d="M596 1280 c-91 -36 -144 -109 -153 -212 l-6 -58 -96 0 c-62 -1 -102
-5 -113 -13 -9 -8 -21 -40 -28 -78 -6 -35 -17 -95 -25 -134 -8 -38 -25 -137
-40 -220 -14 -82 -28 -158 -31 -167 -5 -17 27 -18 585 -18 325 0 591 3 591 8
0 17 -30 173 -34 181 -6 9 -39 173 -62 306 -9 55 -21 108 -26 118 -7 14 -24
17 -113 17 l-105 0 0 46 c0 57 -49 162 -88 191 -38 28 -118 53 -166 53 -23 -1
-63 -10 -90 -20z m173 -59 c60 -26 103 -89 109 -157 l4 -54 -191 0 -191 0 0
35 c0 34 24 86 62 135 46 59 131 76 207 41z m-327 -313 c3 -38 6 -43 28 -43
22 0 25 5 28 43 2 23 6 42 11 42 17 0 31 -27 31 -61 0 -29 -6 -43 -26 -58 -34
-27 -57 -26 -90 2 -29 26 -36 76 -13 103 19 24 28 16 31 -28z m440 0 c3 -38 6
-43 28 -43 22 0 25 5 28 43 4 52 26 56 42 8 15 -46 -7 -92 -49 -101 -66 -14
-113 54 -81 116 17 31 29 22 32 -23z"/>
<path d="M85 293 c-4 -27 -11 -53 -15 -58 -5 -6 -10 -30 -11 -54 -2 -33 1 -47
16 -57 26 -19 1214 -21 1233 -2 16 16 15 66 -4 149 l-16 69 -598 0 -598 0 -7
-47z"/>
</g>
</svg>
